<?xml version="1.0" encoding="UTF-8"?>
<svg xmlns="http://www.w3.org/2000/svg" viewBox="0 0 200 100">
  <rect width="200" height="100" fill="#ffffff" rx="10" ry="10"/>
  
  <!-- USA Text -->
  <text x="110" y="60" font-family="Arial" font-size="36" font-weight="bold" fill="#3c3b6e">USA</text>
  
  <!-- Flag -->
  <rect x="20" y="20" width="60" height="60" rx="5" ry="5" fill="#ffffff" stroke="#cccccc" stroke-width="1"/>
  <rect x="20" y="20" width="60" height="5" fill="#b22234"/>
  <rect x="20" y="30" width="60" height="5" fill="#b22234"/>
  <rect x="20" y="40" width="60" height="5" fill="#b22234"/>
  <rect x="20" y="50" width="60" height="5" fill="#b22234"/>
  <rect x="20" y="60" width="60" height="5" fill="#b22234"/>
  <rect x="20" y="70" width="60" height="5" fill="#b22234"/>
  <rect x="20" y="20" width="30" height="25" fill="#3c3b6e"/>
  
  <!-- Stars (simplified) -->
  <circle cx="25" cy="25" r="1.5" fill="#ffffff"/>
  <circle cx="35" cy="25" r="1.5" fill="#ffffff"/>
  <circle cx="45" cy="25" r="1.5" fill="#ffffff"/>
  <circle cx="25" cy="30" r="1.5" fill="#ffffff"/>
  <circle cx="35" cy="30" r="1.5" fill="#ffffff"/>
  <circle cx="45" cy="30" r="1.5" fill="#ffffff"/>
  <circle cx="25" cy="35" r="1.5" fill="#ffffff"/>
  <circle cx="35" cy="35" r="1.5" fill="#ffffff"/>
  <circle cx="45" cy="35" r="1.5" fill="#ffffff"/>
  
  <!-- Decorative elements -->
  <path d="M160,30 A40,40 0 0,1 160,70" stroke="#b22234" stroke-width="3" fill="none"/>
  <path d="M170,35 A30,30 0 0,1 170,65" stroke="#3c3b6e" stroke-width="3" fill="none"/>
</svg>